<svg width="40" height="40" viewBox="0 0 40 40" fill="none" xmlns="http://www.w3.org/2000/svg">
<circle cx="20" cy="20" r="20" fill="white"/>
<path d="M15.3271 12.9647C15.1192 12.9751 14.9236 13.0663 14.782 13.2189C14.6403 13.3714 14.5639 13.5733 14.569 13.7814C14.5741 13.9895 14.6604 14.1874 14.8093 14.3329C14.9582 14.4783 15.1581 14.5598 15.3663 14.56L24.5504 14.3365L13.4632 25.4237C13.3135 25.5734 13.2294 25.7764 13.2294 25.9881C13.2294 26.1997 13.3135 26.4027 13.4632 26.5524C13.6129 26.7021 13.8159 26.7862 14.0276 26.7862C14.2393 26.7862 14.4423 26.7021 14.592 26.5524L25.6791 15.4652L25.4564 24.6501C25.4538 24.7549 25.4718 24.8592 25.5095 24.957C25.5472 25.0549 25.6038 25.1443 25.676 25.2203C25.7483 25.2962 25.8348 25.3572 25.9306 25.3997C26.0264 25.4422 26.1297 25.4655 26.2345 25.4681C26.3393 25.4707 26.4436 25.4527 26.5414 25.415C26.6392 25.3773 26.7286 25.3207 26.8046 25.2485C26.8806 25.1762 26.9415 25.0897 26.9841 24.9939C27.0266 24.8981 27.0498 24.7948 27.0524 24.69L27.3181 13.7887C27.3239 13.5506 27.2497 13.3174 27.1074 13.1265C27.0482 13.0413 26.974 12.9676 26.8884 12.909C26.6977 12.7675 26.4651 12.6939 26.2277 12.6998L15.3271 12.9647Z" fill="#8A2BE2"/>
</svg>
