<svg width="69" height="69" viewBox="0 0 69 69" fill="none" xmlns="http://www.w3.org/2000/svg">
<rect width="69" height="69" rx="34.5" fill="#F3E9FC"/>
<path d="M28.7308 46V27.7917M40.2692 46V27.7917M29.6923 27.7917C29.6923 26.5208 30.1988 25.3021 31.1004 24.4034C32.0021 23.5048 33.2249 23 34.5 23C35.7751 23 36.9979 23.5048 37.8996 24.4034C38.8012 25.3021 39.3077 26.5208 39.3077 27.7917M43.1538 27.7917H25.8462C24.8261 27.7917 23.8478 28.1955 23.1265 28.9144C22.4052 29.6333 22 30.6083 22 31.625V42.1667C22 43.1833 22.4052 44.1584 23.1265 44.8772C23.8478 45.5961 24.8261 46 25.8462 46H43.1538C44.1739 46 45.1522 45.5961 45.8735 44.8772C46.5948 44.1584 47 43.1833 47 42.1667V31.625C47 30.6083 46.5948 29.6333 45.8735 28.9144C45.1522 28.1955 44.1739 27.7917 43.1538 27.7917Z" stroke="#8A2BE2" stroke-width="2" stroke-linecap="round" stroke-linejoin="round"/>
</svg>
