<svg width="69" height="69" viewBox="0 0 69 69" fill="none" xmlns="http://www.w3.org/2000/svg">
<path d="M0 34.5C0 15.4462 15.4462 0 34.5 0C53.5538 0 69 15.4462 69 34.5C69 53.5538 53.5538 69 34.5 69C15.4462 69 0 53.5538 0 34.5Z" fill="#F3E9FC"/>
<path fill-rule="evenodd" clip-rule="evenodd" d="M39.9548 23.2616C40.1224 23.0941 40.3498 23 40.5868 23C40.8238 23 41.0511 23.0941 41.2188 23.2616L45.3924 27.4352C45.5174 27.5603 45.6024 27.7196 45.6369 27.893C45.6713 28.0664 45.6536 28.2461 45.586 28.4094C45.5183 28.5727 45.4038 28.7123 45.2569 28.8106C45.11 28.9089 44.9372 28.9614 44.7604 28.9616H41.4811V39.992C41.4811 40.2292 41.3869 40.4567 41.2192 40.6244C41.0514 40.7921 40.824 40.8863 40.5868 40.8863C40.3496 40.8863 40.1221 40.7921 39.9544 40.6244C39.7866 40.4567 39.6924 40.2292 39.6924 39.992V28.9616H36.4131C36.2363 28.9614 36.0636 28.9089 35.9166 28.8106C35.7697 28.7123 35.6552 28.5727 35.5876 28.4094C35.5199 28.2461 35.5022 28.0664 35.5367 27.893C35.5711 27.7196 35.6562 27.5603 35.7811 27.4352L39.9548 23.2616Z" fill="#8A2BE2"/>
<path fill-rule="evenodd" clip-rule="evenodd" d="M23 29.2597C23 27.9155 23.534 26.6265 24.4844 25.676C25.4348 24.7256 26.7239 24.1917 28.068 24.1917C29.4121 24.1917 30.7012 24.7256 31.6517 25.676C32.6021 26.6265 33.136 27.9155 33.136 29.2597V39.992C33.136 40.8617 33.4815 41.6958 34.0965 42.3108C34.7115 42.9258 35.5456 43.2713 36.4153 43.2713C37.2851 43.2713 38.1192 42.9258 38.7342 42.3108C39.3492 41.6958 39.6947 40.8617 39.6947 39.992C39.6947 39.7548 39.7889 39.5273 39.9566 39.3595C40.1243 39.1918 40.3518 39.0976 40.589 39.0976C40.8262 39.0976 41.0537 39.1918 41.2214 39.3595C41.3891 39.5273 41.4834 39.7548 41.4834 39.992C41.4834 41.3361 40.9494 42.6251 39.999 43.5756C39.0485 44.526 37.7595 45.06 36.4153 45.06C35.0712 45.06 33.7822 44.526 32.8317 43.5756C31.8813 42.6251 31.3473 41.3361 31.3473 39.992V29.2597C31.3473 28.3899 31.0018 27.5558 30.3868 26.9409C29.7719 26.3259 28.9377 25.9804 28.068 25.9804C27.1983 25.9804 26.3642 26.3259 25.7492 26.9409C25.1342 27.5558 24.7887 28.3899 24.7887 29.2597V43.5694C24.7887 43.8066 24.6945 44.0341 24.5268 44.2018C24.359 44.3695 24.1316 44.4637 23.8944 44.4637C23.6572 44.4637 23.4297 44.3695 23.262 44.2018C23.0942 44.0341 23 43.8066 23 43.5694V29.2597Z" fill="#8A2BE2"/>
</svg>
