<svg width="69" height="69" viewBox="0 0 69 69" fill="none" xmlns="http://www.w3.org/2000/svg">
<path d="M0 34.5C0 15.4462 15.4462 0 34.5 0C53.5538 0 69 15.4462 69 34.5C69 53.5538 53.5538 69 34.5 69C15.4462 69 0 53.5538 0 34.5Z" fill="#F3E9FC"/>
<path d="M23 46C23 43.6762 23.9231 41.4476 25.5663 39.8044C27.2095 38.1612 29.4381 37.2381 31.7619 37.2381C34.0857 37.2381 36.3143 38.1612 37.9575 39.8044C39.6007 41.4476 40.5238 43.6762 40.5238 46H38.3333C38.3333 44.2571 37.641 42.5857 36.4086 41.3533C35.1762 40.1209 33.5048 39.4286 31.7619 39.4286C30.0191 39.4286 28.3476 40.1209 27.1152 41.3533C25.8828 42.5857 25.1905 44.2571 25.1905 46H23ZM31.7619 36.1429C28.1312 36.1429 25.1905 33.2021 25.1905 29.5714C25.1905 25.9407 28.1312 23 31.7619 23C35.3926 23 38.3333 25.9407 38.3333 29.5714C38.3333 33.2021 35.3926 36.1429 31.7619 36.1429ZM31.7619 33.9524C34.1824 33.9524 36.1429 31.9919 36.1429 29.5714C36.1429 27.151 34.1824 25.1905 31.7619 25.1905C29.3414 25.1905 27.381 27.151 27.381 29.5714C27.381 31.9919 29.3414 33.9524 31.7619 33.9524ZM40.8349 38.008C42.3742 38.701 43.6806 39.8239 44.5969 41.2417C45.5132 42.6595 46.0004 44.3119 46 46H43.8095C43.8099 44.7339 43.4445 43.4946 42.7573 42.4311C42.07 41.3677 41.0902 40.5255 39.9357 40.0058L40.8349 38.008ZM40.0813 25.6428C41.1848 26.0977 42.1283 26.8701 42.7921 27.862C43.4558 28.854 43.81 30.0207 43.8095 31.2143C43.8097 32.7172 43.2481 34.166 42.2349 35.2761C41.2217 36.3862 39.8301 37.0774 38.3333 37.214V35.0093C39.1448 34.8931 39.8977 34.5197 40.4814 33.9441C41.0651 33.3685 41.4489 32.6209 41.5765 31.8111C41.7041 31.0013 41.5686 30.1719 41.1901 29.4448C40.8116 28.7176 40.21 28.1309 39.4735 27.7709L40.0813 25.6428Z" fill="#8A2BE2"/>
</svg>
