<svg width="69" height="69" viewBox="0 0 69 69" fill="none" xmlns="http://www.w3.org/2000/svg">
<rect width="69" height="69" rx="34.5" fill="#F3E9FC"/>
<path d="M34.625 42.4905L34.5 42.6158L34.3625 42.4905C28.425 37.0883 24.5 33.5161 24.5 29.8937C24.5 27.3869 26.375 25.5068 28.875 25.5068C30.8 25.5068 32.675 26.7602 33.3375 28.4648H35.6625C36.325 26.7602 38.2 25.5068 40.125 25.5068C42.625 25.5068 44.5 27.3869 44.5 29.8937C44.5 33.5161 40.575 37.0883 34.625 42.4905ZM40.125 23C37.95 23 35.8625 24.0153 34.5 25.6071C33.1375 24.0153 31.05 23 28.875 23C25.025 23 22 26.0207 22 29.8937C22 34.6191 26.25 38.4921 32.6875 44.3455L34.5 46L36.3125 44.3455C42.75 38.4921 47 34.6191 47 29.8937C47 26.0207 43.975 23 40.125 23Z" fill="#8A2BE2"/>
</svg>
