<svg width="14" height="12" viewBox="0 0 14 12" fill="none" xmlns="http://www.w3.org/2000/svg">
<path d="M6.01445 11.8544C6.12726 11.953 6.2755 12.0051 6.42755 11.9996C6.57959 11.9941 6.72341 11.9316 6.82832 11.8252C6.93324 11.7188 6.99095 11.5771 6.98915 11.4302C6.98735 11.2834 6.92617 11.143 6.81868 11.039L1.95672 6.56865L13.4167 6.56865C13.5714 6.56865 13.7197 6.50932 13.8291 6.40372C13.9385 6.29811 14 6.15488 14 6.00553C14 5.85619 13.9385 5.71296 13.8291 5.60735C13.7197 5.50175 13.5714 5.44242 13.4167 5.44242L1.95672 5.44242L6.81868 0.971279C6.87419 0.920303 6.91876 0.859272 6.94984 0.791669C6.98092 0.724065 6.9979 0.651215 6.99982 0.577277C7.00173 0.503339 6.98854 0.429761 6.961 0.360744C6.93345 0.291727 6.8921 0.228622 6.83929 0.175033C6.78648 0.121444 6.72326 0.0784213 6.65323 0.0484197C6.5832 0.0184171 6.50773 0.00202437 6.43114 0.000177102C6.35454 -0.00167112 6.27832 0.0110633 6.20683 0.0376517C6.13533 0.0642392 6.06996 0.10416 6.01445 0.155136L0.243257 5.46119C0.11719 5.57705 0.0350289 5.73039 0.0099206 5.89667C-0.00356368 5.96868 -0.00330014 6.04248 0.0106983 6.1144C0.036138 6.28014 0.118274 6.4329 0.244035 6.54838L6.01445 11.8544Z" fill="#8A2BE2"/>
</svg>
