<svg width="37" height="37" viewBox="0 0 37 37" fill="none" xmlns="http://www.w3.org/2000/svg">
<path d="M22.1117 21.5005H23.5562V12.5001H16.3336V14.0001H22.1117V21.5005ZM22.1117 23.0006V25.2499C22.1117 25.6647 21.7867 26 21.3844 26H12.7273C12.632 26.0007 12.5376 25.9818 12.4494 25.9444C12.3612 25.907 12.2809 25.8519 12.2133 25.7822C12.1457 25.7124 12.0921 25.6295 12.0555 25.5382C12.0188 25.4468 12 25.3489 12 25.2499L12.0014 14.7509C12.0014 14.3362 12.3265 14.0001 12.7288 14.0001H14.8883V11.75C14.8883 11.5511 14.9644 11.3603 15.0999 11.2197C15.2353 11.079 15.419 11 15.6106 11H24.2777C24.4693 11 24.653 11.079 24.7885 11.2197C24.9239 11.3603 25 11.5511 25 11.75V22.2505C25 22.4495 24.9239 22.6402 24.7885 22.7809C24.653 22.9216 24.4693 23.0006 24.2777 23.0006H22.1117ZM13.446 15.5002L13.4445 24.5007H20.6671V15.5002H13.446ZM14.889 21.5005H18.1392C18.235 21.5005 18.3269 21.461 18.3946 21.3907C18.4623 21.3203 18.5004 21.225 18.5004 21.1255C18.5004 21.026 18.4623 20.9306 18.3946 20.8603C18.3269 20.79 18.235 20.7505 18.1392 20.7505H15.9724C15.4936 20.7505 15.0343 20.5529 14.6957 20.2013C14.357 19.8496 14.1668 19.3727 14.1668 18.8754C14.1668 18.3781 14.357 17.9011 14.6957 17.5495C15.0343 17.1978 15.4936 17.0003 15.9724 17.0003H16.3336V16.2503H17.7781V17.0003H19.2226V18.5004H15.9724C15.8767 18.5004 15.7848 18.5399 15.7171 18.6102C15.6494 18.6805 15.6113 18.7759 15.6113 18.8754C15.6113 18.9748 15.6494 19.0702 15.7171 19.1406C15.7848 19.2109 15.8767 19.2504 15.9724 19.2504H18.1392C18.6181 19.2504 19.0774 19.448 19.416 19.7996C19.7546 20.1513 19.9449 20.6282 19.9449 21.1255C19.9449 21.6228 19.7546 22.0997 19.416 22.4514C19.0774 22.803 18.6181 23.0006 18.1392 23.0006H17.7781V23.7506H16.3336V23.0006H14.889V21.5005Z" fill="#8A2BE2"/>
</svg>
