<svg width="37" height="37" viewBox="0 0 37 37" fill="none" xmlns="http://www.w3.org/2000/svg">
<path d="M19.1989 23.9987L19.1788 23.9952C19.1816 23.9975 19.1849 23.9991 19.1884 23.9997C19.1919 24.0003 19.1955 24 19.1989 23.9987ZM23.7527 16.2516C23.747 16.2189 23.7313 16.1892 23.7083 16.1673C23.6852 16.1453 23.656 16.1323 23.6253 16.1304C23.5946 16.1284 23.5642 16.1376 23.5389 16.1565C23.5136 16.1753 23.4948 16.2028 23.4856 16.2345C23.4767 16.2646 23.4593 16.2909 23.4358 16.3096C23.4123 16.3283 23.3838 16.3385 23.3546 16.3387H22.9674C22.9423 16.3387 22.9177 16.3313 22.8963 16.3173L22.336 15.9541C22.3145 15.9401 22.2899 15.9327 22.2649 15.9327H21.3686C21.3413 15.9327 21.3147 15.9415 21.292 15.9579L20.1867 16.7545C20.1676 16.7682 20.152 16.7869 20.1412 16.8088C20.1305 16.8308 20.125 16.8552 20.1251 16.8801V18.0098C20.1251 18.0369 20.1319 18.0635 20.1448 18.0867C20.1577 18.1099 20.1761 18.1289 20.1982 18.1417L21.6475 18.978C21.6693 18.9907 21.6875 19.0094 21.7004 19.0322C21.7132 19.0551 21.7202 19.0812 21.7206 19.108L21.7274 19.7438C21.7278 19.7701 21.7346 19.7958 21.7471 19.8184C21.7596 19.841 21.7774 19.8596 21.7987 19.8723L22.381 20.2207C22.4026 20.2336 22.4206 20.2526 22.4331 20.2756C22.4457 20.2985 22.4523 20.3247 22.4524 20.3514V21.6669C22.4524 21.6956 22.4601 21.7238 22.4745 21.7479C22.4889 21.7721 22.5095 21.7912 22.5337 21.803C22.5579 21.8149 22.5848 21.8189 22.6111 21.8146C22.6374 21.8103 22.662 21.7979 22.682 21.7789C22.9168 21.5554 23.2535 21.2289 23.2983 21.1542C23.3724 21.0303 23.4419 20.9033 23.5069 20.7734C23.6413 20.5042 23.7552 20.2236 23.8473 19.9343C24.1648 18.9407 23.9139 17.1545 23.7527 16.2516ZM19.6845 19.3648L18.1491 18.1197C18.1318 18.1057 18.1107 18.0981 18.0891 18.0981H17.3605C17.3481 18.0981 17.3357 18.0954 17.3242 18.0903C17.3127 18.0851 17.3023 18.0776 17.2935 18.068L16.95 17.6967C16.9407 17.6866 16.9296 17.6786 16.9175 17.6732C16.9053 17.6678 16.8923 17.665 16.8791 17.665H15.5475C15.5288 17.665 15.5104 17.659 15.4948 17.6477C15.4792 17.6364 15.467 17.6204 15.4599 17.6017C15.4527 17.5829 15.4508 17.5623 15.4545 17.5424C15.4581 17.5225 15.4672 17.5042 15.4804 17.4899L15.6912 17.262C15.7 17.2524 15.7105 17.2449 15.722 17.2397C15.7335 17.2346 15.7459 17.2319 15.7583 17.2319H16.5687C16.6123 17.2319 16.6548 17.2165 16.6896 17.188C16.7244 17.1595 16.7496 17.1195 16.7615 17.0741L16.934 16.411C16.9376 16.3967 16.944 16.3834 16.9526 16.3719C16.9612 16.3604 16.9719 16.351 16.984 16.3441L17.6717 15.9614C17.6872 15.9527 17.7002 15.9397 17.7092 15.9236C17.7183 15.9075 17.7231 15.889 17.7231 15.8702V15.5318C17.723 15.5108 17.729 15.4903 17.7401 15.4731L18.1056 14.9042C18.1165 14.8871 18.1321 14.874 18.1501 14.8668L18.6616 14.6592C18.6797 14.6519 18.6953 14.6387 18.7063 14.6216C18.7173 14.6044 18.7232 14.584 18.7232 14.5631V14.2545C18.7232 14.2376 18.7193 14.221 18.7119 14.206C18.7046 14.1911 18.6939 14.1784 18.6809 14.169L18.1682 13.8004C18.1541 13.7903 18.1378 13.7845 18.121 13.7835C18.1041 13.7824 18.0873 13.7862 18.0723 13.7944L17.3743 14.1717C17.3583 14.1802 17.3405 14.1837 17.3228 14.1818C17.3051 14.1798 17.2882 14.1725 17.2742 14.1606L16.9432 13.8778C16.9319 13.8679 16.9229 13.8555 16.9167 13.8413C16.9105 13.8271 16.9075 13.8116 16.9077 13.7959C16.908 13.7802 16.9115 13.7648 16.9181 13.7509C16.9247 13.7369 16.9341 13.7248 16.9457 13.7154L17.2146 13.5013C17.2268 13.4916 17.2366 13.4789 17.2433 13.4643C17.2501 13.4497 17.2535 13.4336 17.2532 13.4173C17.253 13.4009 17.2492 13.3849 17.2421 13.3705C17.235 13.3561 17.2248 13.3438 17.2123 13.3345L16.7935 13.0187C16.779 13.0076 16.7619 13.0012 16.7442 13.0002C16.7265 12.9991 16.7089 13.0034 16.6934 13.0127C16.5419 13.1023 16.0975 13.3675 15.9398 13.4869C15.2101 14.0402 14.6228 14.7855 14.2334 15.6523C14.1879 15.7541 14.1316 15.8577 14.126 15.9695C14.1205 16.0813 14.0394 16.3309 14.0056 16.4318C14.0011 16.4455 13.9992 16.46 14.0003 16.4745C14.0013 16.4889 14.0052 16.503 14.0116 16.5157L14.9051 18.2908C14.9132 18.3069 14.9251 18.3204 14.9397 18.3298L15.8797 18.9399C15.8919 18.9477 15.9023 18.9584 15.9102 18.9712C15.918 18.984 15.9231 18.9986 15.925 19.0138L16.1133 20.49C16.1152 20.5041 16.1197 20.5177 16.1266 20.5299C16.1336 20.542 16.1427 20.5525 16.1536 20.5606L16.8871 21.1058C16.9084 21.1216 16.9232 21.1456 16.9284 21.1729L17.3175 23.1705C17.3197 23.1822 17.3238 23.1934 17.3298 23.2035C17.3663 23.2674 17.512 23.5012 17.6878 23.5359C17.6715 23.5407 17.657 23.5518 17.6407 23.557C17.6829 23.565 17.7247 23.5755 17.7659 23.5884C17.8159 23.603 17.866 23.6154 17.9161 23.6271C17.9944 23.6439 18.0022 23.6569 18.0397 23.5816C18.0898 23.4809 18.1471 23.4463 18.19 23.4338C18.2076 23.4294 18.2238 23.4197 18.2366 23.4058C18.2494 23.392 18.2583 23.3744 18.2623 23.3553L18.5144 22.0918C18.5197 22.0653 18.534 22.042 18.5545 22.0263L19.681 21.1629C19.6941 21.1529 19.7048 21.1396 19.7122 21.1242C19.7195 21.1088 19.7234 21.0917 19.7233 21.0744V19.4514C19.7235 19.4347 19.7201 19.4182 19.7133 19.4032C19.7066 19.3882 19.6967 19.375 19.6845 19.3648Z" fill="#8A2BE2"/>
<path d="M19.2417 13C19.2417 13 19.1388 13.0056 19.118 13.0062C18.9652 13.0104 18.8128 13.0204 18.6608 13.0362C18.1067 13.0933 17.5641 13.2254 17.0493 13.4286C17.1178 13.4736 17 13.5148 17 13.5148L17.1843 13.8571H18.1707L18.8471 14.1786L19.439 13.8571L19.2417 13ZM21.8411 14.9302L22.2951 14.5552C22.3093 14.5435 22.3202 14.5285 22.3268 14.5118C22.3334 14.495 22.3354 14.477 22.3328 14.4593C22.3302 14.4416 22.3229 14.4248 22.3117 14.4104C22.3005 14.396 22.2857 14.3846 22.2686 14.3771L21.7385 14.1432C21.7115 14.1313 21.6807 14.1299 21.6528 14.1395C21.6248 14.149 21.6019 14.1686 21.5891 14.1941L21.3707 14.6283C21.3588 14.652 21.3565 14.6791 21.3642 14.7043C21.372 14.7296 21.3892 14.7512 21.4127 14.7652L21.7075 14.9404C21.7279 14.9525 21.752 14.958 21.776 14.9562C21.8001 14.9544 21.8229 14.9452 21.8411 14.9302ZM23.9664 15.4822L23.8021 15.2412C23.7995 15.2374 23.7973 15.2337 23.795 15.2296C23.7654 15.1721 23.5205 14.702 23.3159 14.5196C23.1623 14.3816 23.1186 14.4212 23.1065 14.4518C23.0996 14.4687 23.088 14.4835 23.0729 14.4946L22.2601 15.119C22.2401 15.1344 22.2152 15.1428 22.1894 15.1429H21.7686C21.7538 15.1428 21.7391 15.1456 21.7255 15.151C21.7118 15.1564 21.6993 15.1642 21.6889 15.1742L21.3507 15.4956C21.3402 15.5056 21.3319 15.5174 21.3262 15.5304C21.3205 15.5434 21.3176 15.5573 21.3176 15.5714C21.3176 15.5855 21.3205 15.5995 21.3262 15.6125C21.3319 15.6255 21.3402 15.6373 21.3507 15.6472L21.6889 15.9687C21.6993 15.9786 21.7118 15.9865 21.7255 15.9919C21.7391 15.9972 21.7538 16 21.7686 16H23.8872C23.9024 16 23.9174 15.9971 23.9314 15.9914C23.9454 15.9858 23.9581 15.9775 23.9686 15.967C23.9792 15.9566 23.9874 15.9442 23.9927 15.9307C23.9981 15.9172 24.0005 15.9028 23.9999 15.8883L23.9844 15.5361C23.9836 15.5169 23.9773 15.4983 23.9664 15.4822Z" fill="#8A2BE2"/>
<path d="M19 13.0714C20.1403 13.0713 21.2453 13.4666 22.1268 14.1899C23.0082 14.9132 23.6117 15.9198 23.8342 17.0381C24.0567 18.1564 23.8846 19.3173 23.3472 20.323C22.8098 21.3286 21.9402 22.1168 20.8868 22.5533C19.8334 22.9897 18.6612 23.0474 17.57 22.7164C16.4789 22.3855 15.5362 21.6865 14.9026 20.7384C14.2691 19.7904 13.9838 18.652 14.0955 17.5172C14.2072 16.3824 14.7089 15.3215 15.5152 14.5152C15.9717 14.056 16.5148 13.692 17.113 13.4442C17.7111 13.1964 18.3525 13.0697 19 13.0714ZM19 12C15.6866 12 13 14.6866 13 18C13 21.3134 15.6866 24 19 24C22.3134 24 25 21.3134 25 18C25 14.6866 22.3134 12 19 12Z" fill="#8A2BE2"/>
</svg>
