<svg width="37" height="37" viewBox="0 0 37 37" fill="none" xmlns="http://www.w3.org/2000/svg">
<path fill-rule="evenodd" clip-rule="evenodd" d="M15.9704 14.9988C16.3672 14.5945 16.8391 14.2736 17.3591 14.0545C17.879 13.8354 18.4367 13.7225 19 13.7222C20.1357 13.7222 21.2257 14.1808 22.0296 14.9988C22.8346 15.819 23.2862 16.9279 23.2857 18.0834C23.2857 20.0789 22.1914 21.8853 21.0514 23.2189C20.571 23.7781 20.0502 24.3005 19.4932 24.7818C19.3322 24.9214 19.1677 25.057 19 25.1884C18.8324 25.0569 18.6679 24.9213 18.5068 24.7818C17.9498 24.3005 17.429 23.7781 16.9486 23.2189C15.8086 21.8853 14.7143 20.0789 14.7143 18.0834C14.7143 16.926 15.1664 15.8167 15.9704 14.9988ZM18.7943 25.9341L19 25.639L19.2057 25.9341C19.1455 25.977 19.0737 26 19 26C18.9263 26 18.8545 25.977 18.7943 25.9341ZM18.7943 25.9341L19 25.639L19.2057 25.9341L19.2071 25.9334L19.2107 25.9308L19.2214 25.9225L19.2636 25.8918C19.2998 25.8651 19.351 25.8261 19.4171 25.7748C19.5486 25.673 19.735 25.5231 19.9575 25.3307C20.5416 24.8259 21.0877 24.2779 21.5914 23.6912C22.7729 22.3096 24 20.3379 24 18.0831C24 16.7361 23.4736 15.4433 22.5364 14.49C22.0732 14.0181 21.5223 13.6435 20.9154 13.3878C20.3085 13.1321 19.6575 13.0003 19 13C18.3425 13.0003 17.6916 13.132 17.0846 13.3876C16.4777 13.6433 15.9268 14.0178 15.4636 14.4896C14.5256 15.4452 13.9995 16.7371 14 18.0834C14 20.3379 15.2271 22.3096 16.4086 23.6912C16.9123 24.2779 17.4584 24.8259 18.0425 25.3307C18.2654 25.5231 18.4514 25.673 18.5829 25.7748C18.6473 25.825 18.7125 25.8744 18.7782 25.9229L18.7896 25.9308L18.7929 25.9334L18.7943 25.9341ZM17.5714 18.0556C17.5714 17.6725 17.7219 17.3051 17.9898 17.0342C18.2578 16.7633 18.6211 16.6112 19 16.6112C19.3789 16.6112 19.7422 16.7633 20.0102 17.0342C20.2781 17.3051 20.4286 17.6725 20.4286 18.0556C20.4286 18.4387 20.2781 18.8061 20.0102 19.077C19.7422 19.3479 19.3789 19.5001 19 19.5001C18.6211 19.5001 18.2578 19.3479 17.9898 19.077C17.7219 18.8061 17.5714 18.4387 17.5714 18.0556ZM19 15.8889C18.4317 15.8889 17.8866 16.1172 17.4848 16.5235C17.0829 16.9299 16.8571 17.481 16.8571 18.0556C16.8571 18.6303 17.0829 19.1814 17.4848 19.5877C17.8866 19.994 18.4317 20.2223 19 20.2223C19.5683 20.2223 20.1134 19.994 20.5152 19.5877C20.9171 19.1814 21.1429 18.6303 21.1429 18.0556C21.1429 17.481 20.9171 16.9299 20.5152 16.5235C20.1134 16.1172 19.5683 15.8889 19 15.8889Z" fill="#8A2BE2"/>
</svg>
