<svg width="37" height="37" viewBox="0 0 37 37" fill="none" xmlns="http://www.w3.org/2000/svg">
<path d="M19.0141 19.842L17.5132 18.336L17.5309 18.318C18.5323 17.1885 19.2803 15.8517 19.7232 14.4H21.4545V13.2H17.3182V12H16.1364V13.2H12V14.4H18.6005C18.2045 15.552 17.5782 16.65 16.7273 17.61C16.1777 16.992 15.7227 16.314 15.3623 15.6H14.1805C14.6118 16.578 15.2027 17.502 15.9414 18.336L12.9336 21.348L13.7727 22.2L16.7273 19.2L18.565 21.066L19.0141 19.842ZM22.3409 16.8H21.1591L18.5 24H19.6818L20.3436 22.2H23.1505L23.8182 24H25L22.3409 16.8ZM20.7927 21L21.75 18.402L22.7073 21H20.7927Z" fill="#8A2BE2"/>
</svg>
