<svg width="43" height="43" viewBox="0 0 43 43" fill="none" xmlns="http://www.w3.org/2000/svg">
<path d="M21.5006 34.0416C21.9395 34.0416 22.363 34.2028 22.691 34.4944C23.0189 34.786 23.2284 35.1878 23.2797 35.6236L23.2923 35.8332V37.6249C23.2918 38.0816 23.1169 38.5208 22.8034 38.8529C22.4899 39.1849 22.0615 39.3848 21.6056 39.4115C21.1497 39.4383 20.7009 39.29 20.3507 38.9969C20.0005 38.7038 19.7754 38.288 19.7215 37.8345L19.709 37.6249V35.8332C19.709 35.3581 19.8977 34.9024 20.2337 34.5663C20.5697 34.2303 21.0254 34.0416 21.5006 34.0416ZM32.8114 30.297L32.9798 30.4457L34.234 31.6999C34.5553 32.0223 34.7419 32.4549 34.7558 32.9099C34.7697 33.3649 34.6099 33.8082 34.3088 34.1496C34.0077 34.491 33.588 34.705 33.1348 34.7482C32.6817 34.7914 32.2291 34.6604 31.869 34.382L31.7006 34.2333L30.4464 32.9791C30.1372 32.6705 29.9515 32.2595 29.9241 31.8235C29.8967 31.3875 30.0295 30.9565 30.2976 30.6116C30.5657 30.2667 30.9506 30.0316 31.3799 29.9505C31.8092 29.8695 32.2533 29.9481 32.6287 30.1716L32.8114 30.297ZM12.5548 30.4457C12.8633 30.7542 13.0486 31.1647 13.076 31.6001C13.1034 32.0355 12.9709 32.466 12.7035 32.8107L12.5548 32.9791L11.3007 34.2333C10.9782 34.5546 10.5456 34.7412 10.0906 34.7551C9.6356 34.769 9.19238 34.6092 8.85095 34.3081C8.50952 34.007 8.29549 33.5873 8.25232 33.1341C8.20915 32.681 8.34009 32.2284 8.61854 31.8683L8.76724 31.6999L10.0214 30.4457C10.3574 30.1098 10.813 29.9211 11.2881 29.9211C11.7632 29.9211 12.2188 30.1098 12.5548 30.4457ZM7.16729 19.7083C7.62395 19.7088 8.06318 19.8836 8.39524 20.1971C8.7273 20.5106 8.92712 20.939 8.95389 21.3949C8.98065 21.8508 8.83233 22.2997 8.53923 22.6499C8.24613 23.0001 7.83037 23.2251 7.37691 23.279L7.16729 23.2916H5.37562C4.91896 23.2911 4.47973 23.1162 4.14767 22.8027C3.81561 22.4892 3.61578 22.0608 3.58902 21.6049C3.56226 21.149 3.71058 20.7002 4.00368 20.35C4.29678 19.9998 4.71253 19.7747 5.16599 19.7208L5.37562 19.7083H7.16729ZM37.6256 19.7083C38.0823 19.7088 38.5215 19.8836 38.8536 20.1971C39.1856 20.5106 39.3855 20.939 39.4122 21.3949C39.439 21.8508 39.2907 22.2997 38.9976 22.6499C38.7045 23.0001 38.2887 23.2251 37.8352 23.279L37.6256 23.2916H35.834C35.3773 23.2911 34.9381 23.1162 34.606 22.8027C34.2739 22.4892 34.0741 22.0608 34.0474 21.6049C34.0206 21.149 34.1689 20.7002 34.462 20.35C34.7551 19.9998 35.1709 19.7747 35.6243 19.7208L35.834 19.7083H37.6256ZM11.1322 8.61783L11.3007 8.76654L12.5548 10.0207C12.8762 10.3431 13.0627 10.7758 13.0766 11.2308C13.0905 11.6858 12.9307 12.129 12.6296 12.4704C12.3286 12.8118 11.9088 13.0259 11.4557 13.069C11.0025 13.1122 10.5499 12.9813 10.1898 12.7028L10.0214 12.5541L8.76724 11.3C8.45924 10.9912 8.27441 10.5807 8.24742 10.1455C8.22043 9.7102 8.35312 9.28003 8.62062 8.93559C8.88812 8.59116 9.27206 8.35612 9.70047 8.27454C10.1289 8.19295 10.5723 8.27042 10.9477 8.49242L11.1322 8.61783ZM34.234 8.76654C34.5425 9.07506 34.7278 9.48553 34.7552 9.92095C34.7825 10.3564 34.6501 10.7868 34.3827 11.1315L34.234 11.3L32.9798 12.5541C32.6574 12.8755 32.2248 13.062 31.7698 13.0759C31.3148 13.0898 30.8715 12.93 30.5301 12.6289C30.1887 12.3279 29.9747 11.9081 29.9315 11.455C29.8883 11.0018 30.0193 10.5492 30.2977 10.1891L30.4464 10.0207L31.7006 8.76654C32.0366 8.43066 32.4922 8.24197 32.9673 8.24197C33.4424 8.24197 33.898 8.43066 34.234 8.76654ZM21.5006 3.58325C21.9395 3.58331 22.363 3.74442 22.691 4.03603C23.0189 4.32764 23.2284 4.72947 23.2797 5.16529L23.2923 5.37492V7.16658C23.2918 7.62324 23.1169 8.06248 22.8034 8.39454C22.4899 8.7266 22.0615 8.92642 21.6056 8.95318C21.1497 8.97995 20.7009 8.83163 20.3507 8.53853C20.0005 8.24543 19.7754 7.82967 19.7215 7.37621L19.709 7.16658V5.37492C19.709 4.89974 19.8977 4.44402 20.2337 4.10802C20.5697 3.77202 21.0254 3.58325 21.5006 3.58325ZM21.5006 12.5416C23.2559 12.5415 24.9725 13.057 26.4372 14.0242C27.902 14.9913 29.0504 16.3675 29.7397 17.9817C30.429 19.596 30.629 21.3771 30.3147 23.104C30.0004 24.8309 29.1857 26.4274 27.9718 27.6952C26.7579 28.9631 25.1983 29.8464 23.4867 30.2354C21.7751 30.6245 19.987 30.5021 18.3443 29.8836C16.7016 29.2651 15.2769 28.1776 14.247 26.7562C13.2171 25.3349 12.6274 23.6423 12.5512 21.8887L12.5423 21.4999L12.5512 21.1111C12.6514 18.8048 13.6381 16.6262 15.3054 15.0296C16.9728 13.433 19.1921 12.5417 21.5006 12.5416Z" fill="#FACC15"/>
</svg>
