<svg width="37" height="37" viewBox="0 0 37 37" fill="none" xmlns="http://www.w3.org/2000/svg">
<path d="M19.5 24C20.0909 24 20.6761 23.8836 21.2221 23.6575C21.768 23.4313 22.2641 23.0998 22.682 22.682C23.0998 22.2641 23.4313 21.768 23.6575 21.2221C23.8836 20.6761 24 20.0909 24 19.5C24 18.9091 23.8836 18.3239 23.6575 17.7779C23.4313 17.232 23.0998 16.7359 22.682 16.318C22.2641 15.9002 21.768 15.5687 21.2221 15.3425C20.6761 15.1164 20.0909 15 19.5 15C18.3065 15 17.1619 15.4741 16.318 16.318C15.4741 17.1619 15 18.3065 15 19.5C15 20.6935 15.4741 21.8381 16.318 22.682C17.1619 23.5259 18.3065 24 19.5 24ZM25 19.5C25 22.5375 22.5375 25 19.5 25C16.4625 25 14 22.5375 14 19.5C14 16.4625 16.4625 14 19.5 14C22.5375 14 25 16.4625 25 19.5ZM21 21.707L19 19.707V16.25H20V19.293L21.707 21L21 21.707Z" fill="#8A2BE2"/>
</svg>
