<svg width="30" height="30" viewBox="0 0 30 30" fill="none" xmlns="http://www.w3.org/2000/svg">
<path fill-rule="evenodd" clip-rule="evenodd" d="M11.9704 10.9988C12.3672 10.5945 12.8391 10.2736 13.3591 10.0545C13.879 9.83544 14.4367 9.72251 15 9.72223C16.1357 9.72223 17.2257 10.1808 18.0296 10.9988C18.8346 11.819 19.2862 12.9279 19.2857 14.0834C19.2857 16.0789 18.1914 17.8853 17.0514 19.2189C16.571 19.7781 16.0502 20.3005 15.4932 20.7818C15.3322 20.9214 15.1677 21.057 15 21.1884C14.8324 21.0569 14.6679 20.9213 14.5068 20.7818C13.9498 20.3005 13.429 19.7781 12.9486 19.2189C11.8086 17.8853 10.7143 16.0789 10.7143 14.0834C10.7143 12.926 11.1664 11.8167 11.9704 10.9988ZM14.7943 21.9341L15 21.639L15.2057 21.9341C15.1455 21.977 15.0737 22 15 22C14.9263 22 14.8545 21.977 14.7943 21.9341ZM14.7943 21.9341L15 21.639L15.2057 21.9341L15.2071 21.9334L15.2107 21.9308L15.2214 21.9225L15.2636 21.8918C15.2998 21.8651 15.351 21.8261 15.4171 21.7748C15.5486 21.673 15.735 21.5231 15.9575 21.3307C16.5416 20.8259 17.0877 20.2779 17.5914 19.6912C18.7729 18.3096 20 16.3379 20 14.0831C20 12.7361 19.4736 11.4433 18.5364 10.49C18.0732 10.0181 17.5223 9.64352 16.9154 9.38781C16.3085 9.1321 15.6575 9.0003 15 9C14.3425 9.00025 13.6916 9.13199 13.0846 9.38764C12.4777 9.64329 11.9268 10.0178 11.4636 10.4896C10.5256 11.4452 9.99949 12.7371 10 14.0834C10 16.3379 11.2271 18.3096 12.4086 19.6912C12.9123 20.2779 13.4584 20.8259 14.0425 21.3307C14.2654 21.5231 14.4514 21.673 14.5829 21.7748C14.6473 21.825 14.7125 21.8744 14.7782 21.9229L14.7896 21.9308L14.7929 21.9334L14.7943 21.9341ZM13.5714 14.0556C13.5714 13.6725 13.7219 13.3051 13.9898 13.0342C14.2578 12.7633 14.6211 12.6112 15 12.6112C15.3789 12.6112 15.7422 12.7633 16.0102 13.0342C16.2781 13.3051 16.4286 13.6725 16.4286 14.0556C16.4286 14.4387 16.2781 14.8061 16.0102 15.077C15.7422 15.3479 15.3789 15.5001 15 15.5001C14.6211 15.5001 14.2578 15.3479 13.9898 15.077C13.7219 14.8061 13.5714 14.4387 13.5714 14.0556ZM15 11.8889C14.4317 11.8889 13.8866 12.1172 13.4848 12.5235C13.0829 12.9299 12.8571 13.481 12.8571 14.0556C12.8571 14.6303 13.0829 15.1814 13.4848 15.5877C13.8866 15.994 14.4317 16.2223 15 16.2223C15.5683 16.2223 16.1134 15.994 16.5152 15.5877C16.9171 15.1814 17.1429 14.6303 17.1429 14.0556C17.1429 13.481 16.9171 12.9299 16.5152 12.5235C16.1134 12.1172 15.5683 11.8889 15 11.8889Z" fill="white"/>
</svg>
