<svg width="30" height="30" viewBox="0 0 30 30" fill="none" xmlns="http://www.w3.org/2000/svg">
    <path
        d="M0 15C0 6.71573 6.71573 0 15 0C23.2843 0 30 6.71573 30 15C30 23.2843 23.2843 30 15 30C6.71573 30 0 23.2843 0 15Z"
        fill="#F3E9FC" />
    <path fill-rule="evenodd" clip-rule="evenodd"
        d="M10.5279 10.4717C11.2767 9.75223 12.5099 9.88007 13.1369 10.6899L13.9134 11.6912C14.4242 12.35 14.3786 13.2704 13.7725 13.8525L13.6261 13.994C13.6095 14.0534 13.6078 14.1158 13.6212 14.1759C13.6599 14.4185 13.8697 14.9322 14.7484 15.7766C15.6271 16.6209 16.1625 16.823 16.4172 16.8611C16.4814 16.8736 16.5477 16.8717 16.6111 16.8557L16.8621 16.6143C17.4011 16.097 18.2281 16.0001 18.8952 16.3503L20.0704 16.9687C21.0777 17.4967 21.3319 18.819 20.5073 19.6116L19.6329 20.4512C19.3573 20.7158 18.9868 20.9364 18.5352 20.9774C17.4214 21.0779 14.8266 20.9494 12.0988 18.3291C9.5532 15.883 9.06463 13.7496 9.00248 12.6984C8.97171 12.1668 9.23138 11.7173 9.56243 11.3998L10.5279 10.4717ZM12.3985 11.2244C12.0865 10.8219 11.5056 10.7898 11.1783 11.1043L10.2122 12.0319C10.0092 12.2269 9.91194 12.4421 9.92424 12.6479C9.97347 13.4832 10.3673 15.4079 12.7498 17.6971C15.2493 20.098 17.5574 20.1699 18.4497 20.0891C18.6318 20.073 18.8127 19.9815 18.9819 19.8191L19.8557 18.979C20.2114 18.6377 20.1332 18.0158 19.6299 17.7518L18.4546 17.134C18.1297 16.9639 17.7494 17.0198 17.5131 17.247L17.2332 17.5163L16.907 17.2C17.2332 17.5163 17.2325 17.5169 17.2319 17.5169L17.2313 17.5181L17.2295 17.5199L17.2252 17.5234L17.2159 17.5318C17.19 17.5551 17.162 17.5762 17.1322 17.5948C17.083 17.6263 17.0178 17.6614 16.9359 17.6905C16.7698 17.7506 16.5495 17.7827 16.2775 17.7422C15.744 17.6632 15.037 17.3118 14.0974 16.4092C13.1584 15.5066 12.7917 14.8276 12.7092 14.3127C12.6668 14.0499 12.7006 13.837 12.7634 13.6765C12.7979 13.5862 12.8474 13.5018 12.9098 13.4268L12.9295 13.406L12.9381 13.397L12.9418 13.3935L12.9437 13.3917L12.9449 13.3905L13.1221 13.2204C13.3855 12.9666 13.4224 12.5462 13.1744 12.2257L12.3985 11.2244Z"
        fill="#8A2BE2" />
</svg>