<svg width="30" height="30" viewBox="0 0 30 30" fill="none" xmlns="http://www.w3.org/2000/svg">
<path d="M15.5 20C16.0909 20 16.6761 19.8836 17.2221 19.6575C17.768 19.4313 18.2641 19.0998 18.682 18.682C19.0998 18.2641 19.4313 17.768 19.6575 17.2221C19.8836 16.6761 20 16.0909 20 15.5C20 14.9091 19.8836 14.3239 19.6575 13.7779C19.4313 13.232 19.0998 12.7359 18.682 12.318C18.2641 11.9002 17.768 11.5687 17.2221 11.3425C16.6761 11.1164 16.0909 11 15.5 11C14.3065 11 13.1619 11.4741 12.318 12.318C11.4741 13.1619 11 14.3065 11 15.5C11 16.6935 11.4741 17.8381 12.318 18.682C13.1619 19.5259 14.3065 20 15.5 20ZM21 15.5C21 18.5375 18.5375 21 15.5 21C12.4625 21 10 18.5375 10 15.5C10 12.4625 12.4625 10 15.5 10C18.5375 10 21 12.4625 21 15.5ZM17 17.707L15 15.707V12.25H16V15.293L17.707 17L17 17.707Z" fill="white"/>
</svg>
