<svg width="30" height="30" viewBox="0 0 30 30" fill="none" xmlns="http://www.w3.org/2000/svg">
<rect width="30" height="30" rx="15" fill="#F3E9FC"/>
<path d="M19.9773 10.0971C19.9773 10.0971 21.0873 9.62098 20.9945 10.7772C20.9639 11.2534 20.6865 12.92 20.4705 14.7224L19.7305 20.0621C19.7305 20.0621 19.6688 20.8444 19.1136 20.9805C18.5587 21.1162 17.7262 20.5043 17.5719 20.3682C17.4484 20.2661 15.2593 18.7355 14.4884 17.9875C14.2724 17.7833 14.0256 17.3753 14.5193 16.8992L17.757 13.498C18.127 13.0894 18.497 12.1371 16.9553 13.2937L12.6381 16.5245C12.6381 16.5245 12.1447 16.8649 11.2198 16.5588L9.21523 15.8784C9.21523 15.8784 8.47522 15.3683 9.73952 14.8582C12.8233 13.2598 16.6162 11.6274 19.977 10.0968" fill="black"/>
</svg>
