<svg width="30" height="30" viewBox="0 0 30 30" fill="none" xmlns="http://www.w3.org/2000/svg">
<path d="M20.7491 12.249C20.681 12.0076 20.5471 11.7873 20.361 11.6101C20.1749 11.4329 19.9429 11.3049 19.6882 11.239C18.7527 11 15 11 15 11C15 11 11.2473 11 10.3118 11.239C10.0571 11.3049 9.82514 11.4329 9.639 11.6101C9.45285 11.7873 9.31905 12.0076 9.25091 12.249C9 13.1409 9 15 9 15C9 15 9 16.8591 9.25091 17.751C9.31896 17.9925 9.45273 18.2129 9.63888 18.3902C9.82503 18.5675 10.0571 18.6955 10.3118 18.7615C11.2478 19 15 19 15 19C15 19 18.7527 19 19.6882 18.7615C19.9429 18.6955 20.175 18.5675 20.3611 18.3902C20.5473 18.2129 20.681 17.9925 20.7491 17.751C21 16.8601 21 15 21 15C21 15 21 13.1409 20.7491 12.249ZM13.7727 16.6883V13.3123L16.9091 15.0005L13.7727 16.6883Z" stroke="black" stroke-width="1.5" stroke-miterlimit="10" stroke-linejoin="round"/>
</svg>
