<svg width="65" height="65" viewBox="0 0 65 65" fill="none" xmlns="http://www.w3.org/2000/svg">
<rect width="65" height="65" rx="32.5" fill="#F3E9FC"/>
<path d="M42.8066 30.9808C42.7477 30.4667 42.5137 30.0169 42.1771 29.7178C42.1024 24.5189 37.894 20.3125 32.7305 20.3125C27.567 20.3125 23.3583 24.5189 23.2837 29.7178C22.9473 30.0168 22.7134 30.4661 22.6544 30.9799C21.7063 31.2097 21 32.0653 21 33.0831V35.3127C21 36.3304 21.7063 37.186 22.6544 37.4158C22.7609 38.3442 23.4395 39.0625 24.2586 39.0625H25.0866C25.9794 39.0625 26.7057 38.2093 26.7057 37.1604V31.2353C26.7057 30.6491 26.4787 30.1241 26.1226 29.7749C26.1668 26.1261 29.1138 23.1714 32.7305 23.1714C36.3471 23.1714 39.294 26.1261 39.3384 29.7748C38.9821 30.124 38.7549 30.649 38.7549 31.2353V37.1604C38.7549 38.1654 39.4221 38.9903 40.2635 39.0575V40.7246C40.2635 41.8625 39.3377 42.7884 38.1997 42.7884H36.5014C36.2826 42.1487 35.676 41.6874 34.9633 41.6874H33.8313C32.9349 41.6874 32.2057 42.4167 32.2057 43.3132C32.2057 44.2096 32.9349 44.9388 33.8313 44.9388H34.9633C35.676 44.9388 36.2826 44.4776 36.5014 43.8379H38.1997C39.9163 43.8379 41.3131 42.4413 41.3131 40.7246V39.0575C42.0819 38.9962 42.7052 38.3015 42.8066 37.4149C43.7545 37.1851 44.4609 36.3302 44.4609 35.3126V33.083C44.4609 32.0654 43.7545 31.2106 42.8066 30.9808ZM22.6393 36.2934C22.289 36.1056 22.0496 35.7373 22.0496 35.3127V33.0831C22.0496 32.6585 22.289 32.29 22.6393 32.1022V36.2934ZM34.9633 43.8892H33.8313C33.5137 43.8892 33.2553 43.6308 33.2553 43.3132C33.2553 42.9955 33.5137 42.737 33.8313 42.737H34.9633C35.2809 42.737 35.5393 42.9955 35.5393 43.3132C35.5393 43.6308 35.2809 43.8892 34.9633 43.8892ZM25.6561 37.1604C25.6561 37.6145 25.39 38.0129 25.0866 38.0129H24.2585C23.9551 38.0129 23.6888 37.6146 23.6888 37.1604V31.2353C23.6888 30.7812 23.9551 30.3828 24.2585 30.3828H25.0866C25.39 30.3828 25.6561 30.7811 25.6561 31.2353V37.1604ZM32.7305 22.1218C28.6823 22.1218 25.3584 25.3114 25.0904 29.3334C25.089 29.3334 25.0878 29.3333 25.0866 29.3333H24.3482C24.6171 24.8921 28.2735 21.3621 32.7305 21.3621C37.1873 21.3621 40.8436 24.8922 41.1126 29.3333H40.3743C40.3732 29.3333 40.3721 29.3334 40.371 29.3334C40.103 25.3114 36.7788 22.1218 32.7305 22.1218ZM41.7719 37.1604C41.7719 37.6145 41.5058 38.0129 41.2022 38.0129H40.3743C40.0708 38.0129 39.8045 37.6146 39.8045 37.1604V31.2353C39.8045 30.7812 40.0708 30.3828 40.3743 30.3828H41.2022C41.5058 30.3828 41.7719 30.7811 41.7719 31.2353V37.1604ZM43.4113 35.3127C43.4113 35.7373 43.1718 36.1058 42.8214 36.2935V32.1025C43.1718 32.2903 43.4113 32.6584 43.4113 33.0831V35.3127Z" fill="#8A2BE2"/>
</svg>
