<svg width="65" height="65" viewBox="0 0 65 65" fill="none" xmlns="http://www.w3.org/2000/svg">
<rect width="65" height="65" rx="32.5" fill="#F3E9FC"/>
<path fill-rule="evenodd" clip-rule="evenodd" d="M32.5 22.6047C29.8756 22.6047 27.3587 23.6472 25.5029 25.5029C23.6472 27.3587 22.6047 29.8756 22.6047 32.5C22.6047 35.1244 23.6472 37.6413 25.5029 39.4971C27.3587 41.3528 29.8756 42.3953 32.5 42.3953C35.1244 42.3953 37.6413 41.3528 39.4971 39.4971C41.3528 37.6413 42.3953 35.1244 42.3953 32.5C42.3953 29.8756 41.3528 27.3587 39.4971 25.5029C37.6413 23.6472 35.1244 22.6047 32.5 22.6047ZM21 32.5C21 26.1488 26.1488 21 32.5 21C38.8512 21 44 26.1488 44 32.5C44 38.8512 38.8512 44 32.5 44C26.1488 44 21 38.8512 21 32.5ZM32.5 25.2791C32.7128 25.2791 32.9169 25.3636 33.0673 25.5141C33.2178 25.6645 33.3023 25.8686 33.3023 26.0814V26.4205C35.046 26.7329 36.5116 28.0433 36.5116 29.8256C36.5116 30.0384 36.4271 30.2424 36.2766 30.3929C36.1262 30.5434 35.9221 30.6279 35.7093 30.6279C35.4965 30.6279 35.2924 30.5434 35.142 30.3929C34.9915 30.2424 34.907 30.0384 34.907 29.8256C34.907 29.1003 34.3036 28.3311 33.3023 28.0573V31.7694C35.046 32.0817 36.5116 33.3922 36.5116 35.1744C36.5116 36.9567 35.046 38.2671 33.3023 38.5795V38.9186C33.3023 39.1314 33.2178 39.3355 33.0673 39.4859C32.9169 39.6364 32.7128 39.7209 32.5 39.7209C32.2872 39.7209 32.0831 39.6364 31.9327 39.4859C31.7822 39.3355 31.6977 39.1314 31.6977 38.9186V38.5795C29.954 38.2671 28.4884 36.9567 28.4884 35.1744C28.4884 34.9616 28.5729 34.7576 28.7234 34.6071C28.8738 34.4566 29.0779 34.3721 29.2907 34.3721C29.5035 34.3721 29.7076 34.4566 29.858 34.6071C30.0085 34.7576 30.093 34.9616 30.093 35.1744C30.093 35.8997 30.6964 36.6689 31.6977 36.9417V33.2307C29.954 32.9183 28.4884 31.6078 28.4884 29.8256C28.4884 28.0433 29.954 26.7329 31.6977 26.4205V26.0814C31.6977 25.8686 31.7822 25.6645 31.9327 25.5141C32.0831 25.3636 32.2872 25.2791 32.5 25.2791ZM31.6977 28.0573C30.6964 28.3311 30.093 29.1003 30.093 29.8256C30.093 30.5509 30.6964 31.32 31.6977 31.5928V28.0573ZM33.3023 33.4061V36.9427C34.3036 36.6689 34.907 35.9008 34.907 35.1744C34.907 34.4491 34.3036 33.6789 33.3023 33.4061Z" fill="#8A2BE2"/>
</svg>
