<svg width="69" height="69" viewBox="0 0 69 69" fill="none" xmlns="http://www.w3.org/2000/svg">
<rect width="69" height="69" rx="34.5" fill="#F3E9FC"/>
<path d="M39.4814 28.5517C39.4814 30.0241 38.8805 31.4361 37.8109 32.4773C36.7412 33.5184 35.2905 34.1033 33.7777 34.1033C32.265 34.1033 30.8143 33.5184 29.7446 32.4773C28.675 31.4361 28.0741 30.0241 28.0741 28.5517C28.0741 27.0793 28.675 25.6672 29.7446 24.626C30.8143 23.5849 32.265 23 33.7777 23C35.2905 23 36.7412 23.5849 37.8109 24.626C38.8805 25.6672 39.4814 27.0793 39.4814 28.5517ZM37.8518 28.5517C37.8518 27.5 37.4226 26.4913 36.6585 25.7477C35.8945 25.004 34.8583 24.5862 33.7777 24.5862C32.6972 24.5862 31.661 25.004 30.8969 25.7477C30.1329 26.4913 29.7037 27.5 29.7037 28.5517C29.7037 29.6034 30.1329 30.612 30.8969 31.3557C31.661 32.0993 32.6972 32.5171 33.7777 32.5171C34.8583 32.5171 35.8945 32.0993 36.6585 31.3557C37.4226 30.612 37.8518 29.6034 37.8518 28.5517ZM26.8518 35.6895C26.0955 35.6895 25.3701 35.982 24.8353 36.5025C24.3005 37.0231 24 37.7292 24 38.4653V38.8619C24 40.7598 25.241 42.365 27.0026 43.4563C28.774 44.5539 31.172 45.2067 33.7777 45.2067C34.7526 45.2072 35.7252 45.1132 36.6809 44.9259L35.3389 43.5316C34.8343 43.5898 34.3139 43.6194 33.7777 43.6205C31.4335 43.6205 29.3501 43.0304 27.8777 42.1183C26.3947 41.2015 25.6296 40.0293 25.6296 38.8619V38.4653C25.6296 38.1498 25.7584 37.8472 25.9876 37.6241C26.2168 37.401 26.5277 37.2757 26.8518 37.2757H32.0585C32.1905 36.7134 32.4357 36.1733 32.7943 35.6895H26.8518ZM38.9844 36.1432L39.479 36.7499L39.9744 36.1432C40.2637 35.7848 40.627 35.4894 41.0408 35.2762C41.4547 35.0629 41.9099 34.9365 42.3771 34.9051C42.8442 34.8737 43.3129 34.9381 43.753 35.0939C44.193 35.2498 44.5945 35.4938 44.9317 35.8101C46.3047 37.0917 46.3617 39.2386 45.0596 40.59L40.1039 45.7349C40.0241 45.8185 39.9274 45.8852 39.8199 45.9308C39.7123 45.9765 39.5963 46 39.479 46C39.3617 46 39.2456 45.9765 39.1381 45.9308C39.0306 45.8852 38.9339 45.8185 38.854 45.7349L33.9008 40.5861C32.602 39.2354 32.659 37.0941 34.0279 35.814C34.3644 35.4972 34.7656 35.2527 35.2054 35.0963C35.6452 34.9399 36.1138 34.8751 36.5809 34.9061C37.048 34.9372 37.5033 35.0633 37.9172 35.2764C38.331 35.4895 38.6952 35.7848 38.9844 36.1432Z" fill="#8A2BE2"/>
</svg>
