<svg width="15" height="15" viewBox="0 0 15 15" fill="none" xmlns="http://www.w3.org/2000/svg">
<path d="M7.50094 10.7969L4.90719 12.3594C4.7926 12.4323 4.67281 12.4635 4.54781 12.4531C4.42281 12.4427 4.31344 12.401 4.21969 12.3281C4.12594 12.2552 4.05302 12.1642 4.00094 12.055C3.94885 11.9458 3.93844 11.8233 3.96969 11.6875L4.65719 8.73438L2.36031 6.75C2.25615 6.65625 2.19115 6.54938 2.16531 6.42937C2.13948 6.30937 2.14719 6.19229 2.18844 6.07813C2.22969 5.96396 2.29219 5.87021 2.37594 5.79688C2.45969 5.72354 2.57427 5.67667 2.71969 5.65625L5.75094 5.39062L6.92281 2.60938C6.9749 2.48438 7.05573 2.39062 7.16531 2.32812C7.2749 2.26562 7.38677 2.23437 7.50094 2.23438C7.6151 2.23438 7.72698 2.26562 7.83656 2.32812C7.94615 2.39062 8.02698 2.48438 8.07906 2.60938L9.25094 5.39062L12.2822 5.65625C12.428 5.67708 12.5426 5.72396 12.6259 5.79688C12.7093 5.86979 12.7718 5.96354 12.8134 6.07813C12.8551 6.19271 12.863 6.31 12.8372 6.43C12.8114 6.55 12.7461 6.65667 12.6416 6.75L10.3447 8.73438L11.0322 11.6875C11.0634 11.8229 11.053 11.9454 11.0009 12.055C10.9489 12.1646 10.8759 12.2556 10.7822 12.3281C10.6884 12.4006 10.5791 12.4423 10.4541 12.4531C10.3291 12.464 10.2093 12.4327 10.0947 12.3594L7.50094 10.7969Z" fill="#FACC15"/>
</svg>
