<svg width="156" height="51" viewBox="0 0 156 51" fill="none" xmlns="http://www.w3.org/2000/svg">
<path d="M6.71199 33.2573C5.51112 33.2573 4.36029 33.1001 3.25949 32.7856C2.1587 32.4568 1.27235 32.035 0.600433 31.5204L1.77986 28.9042C2.42318 29.3617 3.18087 29.7405 4.05292 30.0407C4.93928 30.3266 5.83278 30.4696 6.73343 30.4696C7.41964 30.4696 7.97004 30.4053 8.38462 30.2766C8.8135 30.1336 9.12802 29.9406 9.32816 29.6976C9.5283 29.4546 9.62838 29.1758 9.62838 28.8613C9.62838 28.461 9.47112 28.1465 9.15661 27.9178C8.84209 27.6747 8.42751 27.4817 7.91285 27.3388C7.3982 27.1815 6.82635 27.0386 6.19733 26.9099C5.5826 26.7669 4.96072 26.5954 4.3317 26.3952C3.71697 26.1951 3.15227 25.9378 2.63762 25.6232C2.12296 25.3087 1.70123 24.8942 1.37242 24.3795C1.05791 23.8648 0.90065 23.2072 0.90065 22.4066C0.90065 21.5489 1.12939 20.7697 1.58686 20.0692C2.05863 19.3544 2.75913 18.7897 3.68838 18.3752C4.63191 17.9463 5.81134 17.7318 7.22664 17.7318C8.17018 17.7318 9.09942 17.8462 10.0144 18.0749C10.9293 18.2894 11.737 18.6182 12.4375 19.0614L11.3653 21.699C10.6648 21.2987 9.96433 21.0056 9.26383 20.8198C8.56332 20.6196 7.87711 20.5196 7.2052 20.5196C6.53329 20.5196 5.98289 20.5982 5.55401 20.7554C5.12513 20.9127 4.81776 21.12 4.63191 21.3773C4.44607 21.6204 4.35314 21.9063 4.35314 22.2351C4.35314 22.6211 4.5104 22.9356 4.82491 23.1786C5.13942 23.4074 5.55401 23.5932 6.06866 23.7362C6.58332 23.8791 7.14801 24.0221 7.76274 24.1651C8.39177 24.308 9.01365 24.4724 9.62838 24.6583C10.2574 24.8441 10.8292 25.0943 11.3439 25.4088C11.8586 25.7233 12.2731 26.1379 12.5877 26.6526C12.9165 27.1672 13.0809 27.8177 13.0809 28.604C13.0809 29.4474 12.845 30.2194 12.3732 30.9199C11.9014 31.6204 11.1938 32.1851 10.2503 32.614C9.32101 33.0429 8.14159 33.2573 6.71199 33.2573ZM18.564 29.569L18.371 25.5589L25.5548 17.9892H29.4147L22.9386 24.9585L21.0086 27.0171L18.564 29.569ZM15.4546 33V17.9892H18.9071V33H15.4546ZM25.7263 33L20.3868 26.4596L22.6598 23.9935L29.7792 33H25.7263ZM33.9496 33V26.867L34.743 28.9685L28.1383 17.9892H31.8266L36.8874 26.4167H34.7645L39.8467 17.9892H43.2563L36.6516 28.9685L37.4235 26.867V33H33.9496Z" fill="#1F1F1F"/>
<path d="M72.9068 33V20.8198H68.1034V17.9892H81.1842V20.8198H76.3808V33H72.9068ZM83.0534 33V17.9892H89.5509C90.8947 17.9892 92.0527 18.2108 93.0249 18.6539C93.997 19.0828 94.7475 19.7047 95.2765 20.5196C95.8054 21.3344 96.0699 22.3066 96.0699 23.436C96.0699 24.551 95.8054 25.516 95.2765 26.3309C94.7475 27.1315 93.997 27.7462 93.0249 28.1751C92.0527 28.604 90.8947 28.8184 89.5509 28.8184H84.9833L86.5273 27.2959V33H83.0534ZM92.596 33L88.8433 27.5532H92.5531L96.3487 33H92.596ZM86.5273 27.6819L84.9833 26.0521H89.3579C90.4301 26.0521 91.2307 25.8234 91.7597 25.3659C92.2886 24.8942 92.5531 24.2508 92.5531 23.436C92.5531 22.6068 92.2886 21.9635 91.7597 21.506C91.2307 21.0485 90.4301 20.8198 89.3579 20.8198H84.9833L86.5273 19.1686V27.6819ZM96.8494 33L103.54 17.9892H106.971L113.683 33H110.038L104.548 19.7476H105.92L100.409 33H96.8494ZM100.195 29.7834L101.117 27.1458H108.837L109.78 29.7834H100.195ZM118.927 33L112.451 17.9892H116.204L121.865 31.2845H119.656L125.403 17.9892H128.856L122.358 33H118.927ZM133.304 24.0364H140.531V26.7383H133.304V24.0364ZM133.561 30.2123H141.731V33H130.109V17.9892H141.453V20.7769H133.561V30.2123ZM144.496 33V17.9892H147.97V30.1694H155.496V33H144.496Z" fill="#1F1F1F"/>
<g clip-path="url(#clip0_182_1023)">
<path d="M63.1763 22.6494L69.936 35.5125L68.4003 38.1724L59.7002 28.6701L55.5845 35.7987L58.2951 40.318L57.1434 42.3129L51.9264 37.5276L45.1737 35.4022L46.3255 33.4073L51.5954 33.4938L55.7111 26.3652L43.131 23.5832L44.6667 20.9233L59.1864 20.3458L63.3689 13.1015C63.6744 12.5724 64.1775 12.1864 64.7676 12.0282C65.3577 11.8701 65.9865 11.9529 66.5156 12.2584C67.0447 12.5638 67.4308 13.067 67.5889 13.6571C67.747 14.2472 67.6642 14.876 67.3588 15.4051L63.1763 22.6494Z" fill="#8A2BE2"/>
</g>
<defs>
<clipPath id="clip0_182_1023">
<rect width="36.8569" height="36.8569" fill="white" transform="translate(51.4277) rotate(30)"/>
</clipPath>
</defs>
</svg>
